<svg width="320" height="80" viewBox="0 0 320 80" fill="none" xmlns="http://www.w3.org/2000/svg">
<path d="M129 53.75C122.235 53.75 116.75 59.2352 116.75 66C116.75 72.7648 122.235 78.25 129 78.25C135.765 78.25 141.25 72.7648 141.25 66C141.25 59.2352 135.765 53.75 129 53.75ZM134.887 62.984C134.895 63.1125 134.895 63.2465 134.895 63.3777C134.895 67.3918 131.838 72.0156 126.252 72.0156C124.529 72.0156 122.932 71.5152 121.587 70.6539C121.833 70.6813 122.068 70.6922 122.32 70.6922C123.742 70.6922 125.049 70.2109 126.091 69.3961C124.756 69.3688 123.635 68.4938 123.252 67.2906C123.72 67.359 124.141 67.359 124.622 67.2359C123.935 67.0963 123.318 66.7232 122.874 66.1799C122.431 65.6366 122.19 64.9566 122.191 64.2555V64.2172C122.593 64.4441 123.066 64.5836 123.561 64.6027C123.145 64.3255 122.804 63.9498 122.568 63.5091C122.332 63.0683 122.208 62.5762 122.208 62.0762C122.208 61.5102 122.355 60.9934 122.621 60.5449C123.383 61.4837 124.335 62.2516 125.414 62.7985C126.493 63.3454 127.674 63.6592 128.882 63.7195C128.453 61.6551 129.995 59.9844 131.849 59.9844C132.724 59.9844 133.512 60.3508 134.067 60.9414C134.753 60.8129 135.409 60.5559 135.995 60.2113C135.768 60.9141 135.292 61.5074 134.66 61.882C135.273 61.8164 135.863 61.6469 136.41 61.409C135.997 62.016 135.48 62.5547 134.887 62.984V62.984Z" fill="#F8F8F8"/>
<g clip-path="url(#clip0_18_259)">
<path d="M171.25 66.5C171.25 67.4946 170.855 68.4484 170.152 69.1517C169.448 69.8549 168.495 70.25 167.5 70.25C166.505 70.25 165.552 69.8549 164.848 69.1517C164.145 68.4484 163.75 67.4946 163.75 66.5C163.75 66.2863 163.772 66.0775 163.811 65.875H162.5V70.8713C162.5 71.2188 162.781 71.5 163.129 71.5H171.873C172.039 71.4997 172.199 71.4333 172.316 71.3154C172.434 71.1975 172.5 71.0378 172.5 70.8713V65.875H171.189C171.228 66.0775 171.25 66.2863 171.25 66.5V66.5ZM167.5 69C167.828 68.9999 168.154 68.9352 168.457 68.8094C168.76 68.6837 169.036 68.4994 169.268 68.2671C169.5 68.0349 169.684 67.7592 169.81 67.4557C169.935 67.1523 170 66.8271 170 66.4987C170 66.1704 169.935 65.8452 169.809 65.5418C169.684 65.2385 169.499 64.9629 169.267 64.7307C169.035 64.4986 168.759 64.3145 168.456 64.1889C168.152 64.0633 167.827 63.9987 167.499 63.9987C166.836 63.9989 166.2 64.2625 165.731 64.7316C165.262 65.2007 164.999 65.8368 164.999 66.5C164.999 67.1632 165.263 67.7992 165.732 68.268C166.201 68.7369 166.837 69.0002 167.5 69V69ZM170.5 63.875H171.999C172.098 63.875 172.194 63.8355 172.264 63.7652C172.335 63.695 172.375 63.5996 172.375 63.5V62.0012C172.375 61.9015 172.335 61.8058 172.265 61.7352C172.194 61.6646 172.099 61.625 171.999 61.625H170.5C170.4 61.625 170.305 61.6646 170.234 61.7352C170.163 61.8058 170.124 61.9015 170.124 62.0012V63.5C170.125 63.7062 170.294 63.875 170.5 63.875V63.875ZM167.5 54.5C164.317 54.5 161.265 55.7643 159.015 58.0147C156.764 60.2652 155.5 63.3174 155.5 66.5C155.5 69.6826 156.764 72.7348 159.015 74.9853C161.265 77.2357 164.317 78.5 167.5 78.5C169.076 78.5 170.636 78.1896 172.092 77.5866C173.548 76.9835 174.871 76.0996 175.985 74.9853C177.1 73.871 177.983 72.5481 178.587 71.0922C179.19 69.6363 179.5 68.0759 179.5 66.5C179.5 64.9241 179.19 63.3637 178.587 61.9078C177.983 60.4519 177.1 59.129 175.985 58.0147C174.871 56.9004 173.548 56.0165 172.092 55.4134C170.636 54.8104 169.076 54.5 167.5 54.5V54.5ZM173.75 71.3613C173.75 72.125 173.125 72.75 172.361 72.75H162.639C161.875 72.75 161.25 72.125 161.25 71.3613V61.6387C161.25 60.875 161.875 60.25 162.639 60.25H172.361C173.125 60.25 173.75 60.875 173.75 61.6387V71.3613V71.3613Z" fill="#F8F8F8"/>
</g>
<g clip-path="url(#clip1_18_259)">
<path fill-rule="evenodd" clip-rule="evenodd" d="M217 65.5C217 72.4031 211.403 78 204.5 78C197.597 78 192 72.4031 192 65.5C192 58.5969 197.597 53 204.5 53C211.403 53 217 58.5969 217 65.5ZM204.948 62.2281C203.732 62.7333 201.302 63.7802 197.658 65.3677C197.067 65.6031 196.756 65.8333 196.728 66.0583C196.68 66.4396 197.157 66.5896 197.805 66.7927C197.894 66.8208 197.985 66.849 198.079 66.8802C198.718 67.0875 199.576 67.3302 200.022 67.3396C200.427 67.3479 200.879 67.1812 201.378 66.8396C204.782 64.5406 206.54 63.3792 206.65 63.3542C206.728 63.3365 206.836 63.3135 206.909 63.3792C206.982 63.4437 206.975 63.5667 206.968 63.6C206.92 63.801 205.051 65.5396 204.082 66.4396C203.78 66.7198 203.567 66.9187 203.523 66.9646C203.425 67.0656 203.325 67.1625 203.229 67.2552C202.635 67.826 202.192 68.2552 203.254 68.9552C203.765 69.2917 204.173 69.5698 204.58 69.8469C205.025 70.15 205.469 70.4521 206.044 70.8292C206.19 70.925 206.329 71.024 206.466 71.1208C206.983 71.4906 207.449 71.8219 208.024 71.7698C208.357 71.7385 208.703 71.425 208.878 70.4885C209.292 68.274 210.106 63.4781 210.295 61.501C210.306 61.3369 210.299 61.172 210.274 61.0094C210.259 60.8781 210.195 60.7572 210.095 60.6708C209.946 60.549 209.715 60.5229 209.61 60.525C209.141 60.5333 208.42 60.7844 204.948 62.2281V62.2281Z" fill="#F8F8F8"/>
</g>
<defs>
<clipPath id="clip0_18_259">
<rect width="25" height="25" fill="white" transform="translate(155 54)"/>
</clipPath>
<clipPath id="clip1_18_259">
<rect width="25" height="25" fill="white" transform="translate(192 53)"/>
</clipPath>
</defs>
</svg>
